<?xml version="1.0" standalone="no"?>
<!DOCTYPE svg PUBLIC "-//W3C//DTD SVG 20010904//EN"
 "http://www.w3.org/TR/2001/REC-SVG-20010904/DTD/svg10.dtd">
<svg version="1.0" xmlns="http://www.w3.org/2000/svg"
 width="652.000000pt" height="430.000000pt" viewBox="0 0 652.000000 430.000000"
 preserveAspectRatio="xMidYMid meet">
  <defs>
    <linearGradient id="gradient" x1="0%" y1="0%" x2="100%" y2="100%">
      <stop offset="0%" style="stop-color:#1E3A8A;stop-opacity:1" />
      <stop offset="100%" style="stop-color:#8B5CF6;stop-opacity:1" />
    </linearGradient>
  </defs>
  <metadata>
    Created by potrace 1.16, written by Peter Selinger 2001-2019
  </metadata>
  <g transform="translate(0.000000,430.000000) scale(0.100000,-0.100000)"
    fill="url(#gradient)" stroke="none">
    <path d="M2027 2820 c-89 -23 -137 -69 -163 -158 -38 -129 8 -262 108 -313 83
    -42 190 -36 269 17 98 67 126 261 51 369 -48 70 -169 109 -265 85z m122 -104
    c33 -18 51 -55 58 -122 7 -65 -10 -116 -50 -150 -26 -22 -38 -25 -74 -21 -73
    8 -103 54 -103 160 0 112 83 177 169 133z"/>
    <path d="M3458 2816 c-93 -25 -143 -83 -160 -188 -28 -167 59 -291 212 -305
    156 -14 262 86 264 250 2 131 -49 210 -156 242 -61 18 -96 18 -160 1z m131
    -101 c35 -17 61 -78 61 -140 0 -120 -80 -186 -170 -140 -63 33 -82 195 -28
    252 40 44 88 54 137 28z"/>
    <path d="M1280 2735 l0 -85 45 0 45 0 0 40 0 40 40 0 40 0 0 -160 0 -160 -25
    0 c-22 0 -25 -4 -25 -40 l0 -40 115 0 115 0 0 39 c0 36 -3 40 -27 43 l-28 3
    -3 158 -3 157 41 0 40 0 0 -40 0 -40 45 0 45 0 0 85 0 85 -230 0 -230 0 0 -85z"/>
    <path d="M2680 2781 c0 -37 2 -41 25 -41 l25 0 0 -165 0 -165 -25 0 c-22 0
    -25 -4 -25 -40 l0 -40 141 0 c77 0 161 5 186 12 189 47 222 358 48 447 -46 24
    -61 26 -212 30 l-163 3 0 -41z m301 -67 c39 -20 59 -68 59 -141 0 -68 -23
    -122 -60 -140 -14 -7 -49 -13 -77 -13 l-53 0 0 148 c0 82 3 152 7 155 12 13
    94 7 124 -9z"/>
    <path d="M4015 2685 c-14 -13 -25 -36 -25 -50 0 -14 11 -37 25 -50 59 -60 151
    -4 124 74 -19 55 -82 69 -124 26z"/>
    <path d="M4300 2635 l0 -75 470 0 470 0 0 75 0 75 -470 0 -470 0 0 -75z"/>
    <path d="M4343 2388 c-53 -25 -47 -109 10 -136 34 -16 74 0 96 39 19 33 2 81
    -35 98 -30 13 -42 13 -71 -1z"/>
    <path d="M4610 2320 l0 -80 315 0 315 0 0 80 0 80 -315 0 -315 0 0 -80z"/>
    <path d="M2667 2200 c-114 -20 -177 -90 -177 -196 0 -110 41 -154 202 -215
    107 -41 138 -61 138 -90 0 -48 -114 -68 -164 -28 -14 11 -26 26 -26 32 -1 35
    -15 38 -93 21 -70 -16 -77 -19 -77 -41 0 -86 106 -160 244 -170 136 -10 238
    40 270 134 21 60 20 98 -3 149 -25 56 -74 91 -173 124 -114 38 -134 49 -147
    77 -9 21 -7 28 15 50 22 22 32 25 70 20 50 -5 74 -21 74 -48 0 -23 19 -24 105
    -6 53 11 60 16 63 38 11 94 -166 176 -321 149z"/>
    <path d="M1280 2135 l0 -55 40 0 40 0 0 -220 0 -220 -40 0 -40 0 0 -60 0 -60
    275 0 275 0 0 115 0 115 -65 0 -65 0 0 -50 0 -50 -90 0 -90 0 2 213 3 212 38
    3 37 3 0 55 0 54 -160 0 -160 0 0 -55z"/>
    <path d="M1990 2135 l0 -55 35 0 35 0 0 -220 0 -220 -35 0 -35 0 0 -60 0 -60
    155 0 155 0 0 60 0 60 -35 0 -35 0 0 220 0 220 35 0 35 0 0 55 0 55 -155 0
    -155 0 0 -55z"/>
    <path d="M3150 2075 l0 -115 59 0 60 0 3 53 3 52 53 3 52 3 0 -215 0 -216 -35
    0 -35 0 0 -60 0 -60 155 0 155 0 0 60 0 60 -35 0 -35 0 0 215 0 215 49 0 50 0
    3 -52 3 -53 63 -3 62 -3 0 116 0 115 -315 0 -315 0 0 -115z"/>
    <path d="M4663 2080 c-50 -20 -59 -96 -16 -130 64 -50 146 18 117 95 -6 15
    -54 46 -71 44 -4 0 -18 -4 -30 -9z"/>
    <path d="M4930 2010 l0 -80 155 0 155 0 0 80 0 80 -155 0 -155 0 0 -80z"/>
    <path d="M4610 1700 l0 -80 315 0 315 0 0 80 0 80 -315 0 -315 0 0 -80z"/>
    <path d="M4333 1755 c-29 -20 -37 -59 -19 -94 35 -66 127 -50 142 24 12 65
    -66 110 -123 70z"/>
  </g>
</svg>